<?xml version="1.0" standalone="no"?><!DOCTYPE svg PUBLIC "-//W3C//DTD SVG 1.1//EN" "http://www.w3.org/Graphics/SVG/1.1/DTD/svg11.dtd"><svg t="1641396893525" class="icon" viewBox="0 0 1024 1024" version="1.1" xmlns="http://www.w3.org/2000/svg" p-id="2385" data-spm-anchor-id="a313x.7781069.0.i5" width="256" height="256" xmlns:xlink="http://www.w3.org/1999/xlink"><defs><style type="text/css"></style></defs><path d="M347.125 721.57c-19.214-0.052-34.803-15.641-34.803-34.803V354.428c0-19.162 15.589-34.751 34.803-34.751h332.338c19.162 0 34.699 15.589 34.699 34.751v332.338c0 19.214-15.589 34.803-34.751 34.803H347.125z m332.287-30.039l4.817-4.765V620.06H545.171v71.471h134.241z m-337.103-4.764c0 2.641 2.175 4.765 4.816 4.765h168.059v-71.419H342.309v66.654z m341.919-96.641v-54.587h-37.652v54.587h37.652z m-67.586 0v-54.587H443.714v54.587h172.928z m-202.863 0v-54.587h-71.471v54.587h71.471z m270.449-84.522v-54.535H545.171v54.535h139.057z m-169.043 0v-54.535H342.309v54.535h172.876z m169.043-84.521v-66.654l-4.817-4.816h-32.835v71.471h37.652z m-67.586 0v-71.471H443.714v71.471h172.928z m-202.863 0v-71.471h-66.654c-2.641 0-4.816 2.175-4.816 4.816v66.654h71.47z" fill="#1196db" p-id="2386"></path><path d="M222.276 412.446h-0.235c-5.976 0-10.869-4.846-11.01-10.916l-2.917-143.154c-0.071-2.988 1.059-5.881 3.129-8.022s4.917-3.341 7.881-3.341h93.938c6.07 0 10.986 4.987 10.986 11.128 0 6.164-4.917 11.151-10.986 11.151h-82.716l2.705 131.768c0.141 6.163-4.706 11.245-10.775 11.386z m371.471 516.437c-20.938 10.281-42.793 19.385-65.566 27.243-13.01 5.199-22.514 3.576-31.219 0-105.019-36.3-190.723-98.408-254.854-184.724-51.804-69.73-89.398-155.058-111.747-253.607-37.594-165.833-19.197-310.963-18.397-317.056 1.6-12.116 9.716-22.326 21.079-26.466L491.457 68.477c12.045-4.87 26.772-5.576 42.229 0l358.438 105.795c11.339 4.141 19.479 14.351 21.079 26.466 0.447 3.458 6.517 102.223 4.917 173.271-0.001 0-8.999 417.966-324.373 554.874z m283.485-556.097a2232.306 2232.306 0 0 0-2.141-164.049L512.583 103.225 150.099 208.713c-3.693 46.817-8.657 166.445 20.985 295.766 48.557 211.872 163.433 351.403 341.499 414.993 22.893-7.749 43.905-16.942 63.19-27.101 264.394-111.456 294.26-425.05 301.459-519.585z" fill="#1196db" p-id="2387"></path></svg>